<svg width="213" height="23" viewBox="0 0 213 23" fill="none" xmlns="http://www.w3.org/2000/svg">
<path d="M7.272 21.928C5.93867 21.928 4.792 21.688 3.832 21.208C2.88267 20.728 2.13067 19.9973 1.576 19.016C1.02133 18.024 0.653333 16.7707 0.472 15.256C0.44 14.904 0.408 14.5413 0.376 14.168C0.354667 13.7947 0.333333 13.4053 0.312 13C0.301333 12.5947 0.290667 12.1787 0.28 11.752C0.28 11.3147 0.28 10.8667 0.28 10.408C0.28 8.552 0.472 7.016 0.856 5.8C1.24 4.584 1.82133 3.62933 2.6 2.936C3.37867 2.24267 4.36533 1.752 5.56 1.464C6.75467 1.176 8.16267 1.032 9.784 1.032C10.5947 1.032 11.3627 1.06933 12.088 1.144C12.8133 1.21867 13.4533 1.33067 14.008 1.48C14.5733 1.62933 15.016 1.82667 15.336 2.072C15.6667 2.30667 15.832 2.58933 15.832 2.92C15.832 3.29333 15.7253 3.58667 15.512 3.8C15.2987 4.01333 15.032 4.15733 14.712 4.232C14.3707 4.28533 13.9333 4.312 13.4 4.312C12.8667 4.312 12.2907 4.30133 11.672 4.28C11.0533 4.25867 10.4347 4.25333 9.816 4.264C9.00533 4.264 8.32267 4.328 7.768 4.456C7.21333 4.57333 6.77067 4.776 6.44 5.064C6.12 5.34133 5.88533 5.71467 5.736 6.184C5.59733 6.65333 5.528 7.23467 5.528 7.928C5.528 8.30133 5.576 8.58933 5.672 8.792C5.77867 8.984 6.008 9.11733 6.36 9.192C6.72267 9.26667 7.29333 9.304 8.072 9.304C8.296 9.304 8.56267 9.304 8.872 9.304C9.18133 9.29333 9.496 9.28267 9.816 9.272C10.1467 9.26133 10.456 9.256 10.744 9.256C11.0427 9.24533 11.288 9.24 11.48 9.24C12.28 9.24 12.8453 9.368 13.176 9.624C13.5067 9.86933 13.672 10.2267 13.672 10.696C13.672 11.3893 13.464 11.864 13.048 12.12C12.632 12.376 12.104 12.504 11.464 12.504C11.208 12.504 10.9253 12.504 10.616 12.504C10.3173 12.504 10.008 12.504 9.688 12.504C9.37867 12.504 9.07467 12.504 8.776 12.504C8.488 12.504 8.22667 12.504 7.992 12.504C7.18133 12.504 6.57333 12.536 6.168 12.6C5.77333 12.664 5.512 12.7867 5.384 12.968C5.26667 13.1493 5.208 13.4213 5.208 13.784C5.208 14.3707 5.23467 14.8933 5.288 15.352C5.352 15.8107 5.45867 16.2107 5.608 16.552C5.75733 16.8933 5.96533 17.176 6.232 17.4C6.49867 17.624 6.84 17.7893 7.256 17.896C7.672 18.0027 8.17333 18.056 8.76 18.056C9.464 18.056 10.1573 18.04 10.84 18.008C11.5333 17.9653 12.1627 17.9227 12.728 17.88C13.304 17.8373 13.7573 17.816 14.088 17.816C14.6533 17.816 15.064 17.944 15.32 18.2C15.5867 18.4453 15.72 18.8027 15.72 19.272C15.72 19.7947 15.4533 20.2267 14.92 20.568C14.3973 20.9093 13.7093 21.176 12.856 21.368C12.0133 21.5707 11.096 21.7147 10.104 21.8C9.12267 21.8853 8.17867 21.928 7.272 21.928ZM22.3045 21.48C21.9205 21.48 21.5792 21.416 21.2805 21.288C20.9818 21.16 20.7152 20.984 20.4805 20.76C20.2565 20.536 20.0485 20.2693 19.8565 19.96C19.6432 19.5547 19.4458 19.0907 19.2645 18.568C19.0938 18.0453 18.9498 17.496 18.8325 16.92C18.7152 16.344 18.6245 15.768 18.5605 15.192C18.4965 14.616 18.4645 14.072 18.4645 13.56C18.4645 11.8 18.8112 10.312 19.5045 9.096C20.1978 7.86933 21.1845 6.936 22.4645 6.296C23.7552 5.656 25.2805 5.336 27.0405 5.336C27.8192 5.336 28.5712 5.39467 29.2965 5.512C30.0218 5.62933 30.6725 5.81067 31.2485 6.056C31.8245 6.29067 32.2778 6.58933 32.6085 6.952C32.9498 7.304 33.1205 7.71467 33.1205 8.184C33.1205 8.61067 33.0352 8.94667 32.8645 9.192C32.6938 9.43733 32.4698 9.608 32.1925 9.704C31.9152 9.8 31.6272 9.848 31.3285 9.848C30.7952 9.848 30.2405 9.768 29.6645 9.608C29.0992 9.448 28.3845 9.368 27.5205 9.368C26.3045 9.368 25.3818 9.74133 24.7525 10.488C24.1338 11.224 23.8245 12.248 23.8245 13.56C23.8245 14.04 23.8458 14.5093 23.8885 14.968C23.9312 15.416 23.9845 15.848 24.0485 16.264C24.1232 16.68 24.1925 17.0693 24.2565 17.432C24.3312 17.7947 24.3898 18.12 24.4325 18.408C24.4752 18.696 24.4965 18.9467 24.4965 19.16C24.4965 19.96 24.3152 20.5467 23.9525 20.92C23.6005 21.2933 23.0512 21.48 22.3045 21.48ZM37.827 21.496C37.187 21.496 36.6857 21.3733 36.323 21.128C35.9603 20.8827 35.7043 20.5147 35.555 20.024C35.4163 19.5227 35.347 18.8987 35.347 18.152C35.347 17.8 35.3577 17.3893 35.379 16.92C35.4003 16.44 35.4217 15.9333 35.443 15.4C35.475 14.8667 35.5123 14.328 35.555 13.784C35.5977 13.2293 35.6457 12.696 35.699 12.184C35.7523 11.672 35.8057 11.208 35.859 10.792C35.923 10.376 35.987 10.04 36.051 9.784C36.3177 9.016 36.7123 8.44533 37.235 8.072C37.7577 7.688 38.4243 7.496 39.235 7.496C40.003 7.496 40.563 7.77867 40.915 8.344C41.267 8.89867 41.443 9.67733 41.443 10.68C41.443 11.0213 41.4323 11.4533 41.411 11.976C41.3897 12.488 41.3577 13.048 41.315 13.656C41.2723 14.2533 41.219 14.8667 41.155 15.496C41.1017 16.1147 41.0377 16.712 40.963 17.288C40.8883 17.8533 40.8083 18.36 40.723 18.808C40.6377 19.2453 40.547 19.5867 40.451 19.832C40.1843 20.4293 39.8323 20.856 39.395 21.112C38.9683 21.368 38.4457 21.496 37.827 21.496ZM39.011 5.272C37.9017 5.272 37.1283 5.09067 36.691 4.728C36.2537 4.35467 36.035 3.928 36.035 3.448C36.035 2.84 36.2537 2.328 36.691 1.912C37.1283 1.496 37.6723 1.18133 38.323 0.967999C38.9737 0.743999 39.619 0.632 40.259 0.632C40.739 0.632 41.1763 0.712 41.571 0.872C41.9763 1.02133 42.2963 1.26133 42.531 1.592C42.7763 1.912 42.899 2.33333 42.899 2.856C42.899 3.432 42.7177 3.90133 42.355 4.264C42.003 4.616 41.5283 4.872 40.931 5.032C40.3443 5.192 39.7043 5.272 39.011 5.272ZM47.5103 21.672C46.9663 21.672 46.5449 21.544 46.2463 21.288C45.9583 21.032 45.7556 20.6693 45.6383 20.2C45.5316 19.72 45.4783 19.1653 45.4783 18.536C45.4783 18.0667 45.5103 17.48 45.5743 16.776C45.6489 16.0613 45.7396 15.2613 45.8463 14.376C45.9636 13.48 46.0756 12.5307 46.1823 11.528C46.2889 10.536 46.4063 9.608 46.5343 8.744C46.6623 7.88 46.7903 7.08533 46.9183 6.36C47.0569 5.63467 47.1956 4.98933 47.3343 4.424C47.4729 3.848 47.6116 3.35733 47.7503 2.952C48.0276 2.20533 48.3529 1.65067 48.7263 1.288C49.1103 0.914665 49.5529 0.727999 50.0543 0.727999C50.7156 0.727999 51.1636 0.967999 51.3983 1.448C51.6329 1.91733 51.7503 2.6 51.7503 3.496C51.7503 3.82667 51.7343 4.19467 51.7023 4.6C51.6809 4.99467 51.6489 5.416 51.6063 5.864C51.5636 6.30133 51.5209 6.74933 51.4783 7.208C51.4356 7.656 51.3929 8.09867 51.3503 8.536C51.3076 8.96267 51.2703 9.368 51.2383 9.752C51.2169 10.1253 51.2063 10.4613 51.2063 10.76C51.2063 11.1013 51.2276 11.3893 51.2703 11.624C51.3129 11.848 51.3876 11.96 51.4943 11.96C51.6116 11.96 51.7343 11.912 51.8623 11.816C52.0009 11.72 52.1556 11.5867 52.3263 11.416C52.4756 11.256 52.6889 11.0427 52.9663 10.776C53.2436 10.5093 53.5476 10.216 53.8783 9.896C54.2196 9.56533 54.5503 9.24533 54.8703 8.936C55.2009 8.62667 55.4996 8.35467 55.7663 8.12C56.0329 7.87467 56.2303 7.70933 56.3583 7.624C56.6463 7.42133 56.9609 7.26133 57.3023 7.144C57.6436 7.02667 57.9636 6.968 58.2623 6.968C58.7743 6.968 59.1849 7.10133 59.4943 7.368C59.8143 7.63467 59.9743 7.98667 59.9743 8.424C59.9743 8.744 59.8623 9.096 59.6383 9.48C59.4249 9.85333 59.0943 10.2107 58.6463 10.552C58.0809 11.096 57.5263 11.5813 56.9823 12.008C56.4383 12.424 55.9316 12.8613 55.4623 13.32C55.1849 13.576 55.0463 13.7787 55.0463 13.928C55.0463 14.024 55.0889 14.1093 55.1743 14.184C55.2596 14.2587 55.3769 14.3493 55.5263 14.456C55.8036 14.648 56.1716 14.8933 56.6303 15.192C57.0996 15.4907 57.5956 15.816 58.1183 16.168C58.6516 16.52 59.1636 16.8667 59.6543 17.208C60.1449 17.5387 60.5556 17.8373 60.8863 18.104C61.1209 18.3067 61.3129 18.5147 61.4623 18.728C61.6116 18.9307 61.6863 19.1493 61.6863 19.384C61.6863 19.6933 61.5956 19.9867 61.4143 20.264C61.2436 20.5307 61.0036 20.7493 60.6943 20.92C60.3956 21.08 60.0543 21.16 59.6703 21.16C59.2969 21.16 58.9343 21.0747 58.5823 20.904C58.2409 20.7333 57.9103 20.52 57.5903 20.264C57.1743 19.9653 56.6836 19.5973 56.1183 19.16C55.5636 18.7227 54.9929 18.264 54.4062 17.784C53.8303 17.2933 53.2863 16.8293 52.7743 16.392C52.5183 16.1573 52.2729 15.9653 52.0383 15.816C51.8036 15.6667 51.5796 15.592 51.3663 15.592C51.1423 15.592 50.9609 15.6667 50.8223 15.816C50.6943 15.9547 50.5983 16.1467 50.5343 16.392C50.3209 17.3413 50.1289 18.1307 49.9583 18.76C49.7876 19.3787 49.6276 19.88 49.4783 20.264C49.2543 20.776 48.9876 21.1387 48.6783 21.352C48.3689 21.5653 47.9796 21.672 47.5103 21.672ZM77.528 21.768C77.0053 21.768 76.5733 21.6293 76.232 21.352C75.8907 21.0747 75.6027 20.6907 75.368 20.2C75.2507 19.944 75.144 19.544 75.048 19C74.952 18.456 74.8613 17.832 74.776 17.128C74.7013 16.4133 74.632 15.672 74.568 14.904C74.504 14.1253 74.4507 13.3627 74.408 12.616C74.3653 11.8587 74.3333 11.176 74.312 10.568C74.2907 9.94933 74.28 9.45867 74.28 9.096C74.28 7.66667 74.3813 6.44533 74.584 5.432C74.7867 4.41867 75.144 3.64533 75.656 3.112C76.1787 2.568 76.9253 2.296 77.896 2.296C78.536 2.296 79.144 2.504 79.72 2.92C80.3067 3.32533 80.9573 3.976 81.672 4.872C82.3973 5.75733 83.2827 6.92 84.328 8.36C85.672 10.2587 86.776 11.688 87.64 12.648C88.504 13.608 89.1333 14.088 89.528 14.088C89.7093 14.088 89.8587 14.0507 89.976 13.976C90.104 13.8907 90.2053 13.72 90.28 13.464C90.3547 13.208 90.408 12.8293 90.44 12.328C90.4507 12.104 90.4613 11.7733 90.472 11.336C90.4827 10.8987 90.488 10.4027 90.488 9.848C90.4987 9.28267 90.504 8.70667 90.504 8.12C90.5147 7.53333 90.5253 6.97867 90.536 6.456C90.5467 5.92267 90.5627 5.464 90.584 5.08C90.6053 4.696 90.6267 4.42933 90.648 4.28C90.8187 3.59733 91.08 3.12267 91.432 2.856C91.7947 2.58933 92.2907 2.456 92.92 2.456C93.4 2.456 93.8053 2.536 94.136 2.696C94.4667 2.856 94.7333 3.10133 94.936 3.432C95.1387 3.752 95.288 4.152 95.384 4.632C95.48 5.112 95.5333 5.672 95.544 6.312C95.5547 6.664 95.56 7.13333 95.56 7.72C95.5707 8.296 95.5707 8.94667 95.56 9.672C95.56 10.3867 95.5493 11.128 95.528 11.896C95.5173 12.664 95.496 13.416 95.464 14.152C95.432 14.8773 95.384 15.544 95.32 16.152C95.2667 16.7493 95.1973 17.2453 95.112 17.64C94.9413 18.472 94.7067 19.1653 94.408 19.72C94.1093 20.264 93.7147 20.6747 93.224 20.952C92.744 21.2187 92.1413 21.352 91.416 21.352C90.7867 21.352 90.1093 21.0747 89.384 20.52C88.6587 19.9547 87.8907 19.1867 87.08 18.216C86.2693 17.2347 85.416 16.1253 84.52 14.888C83.944 14.0987 83.416 13.3787 82.936 12.728C82.4667 12.0667 82.0507 11.5013 81.688 11.032C81.336 10.5627 81.032 10.2053 80.776 9.96C80.52 9.704 80.328 9.576 80.2 9.576C79.9227 9.576 79.7253 9.72533 79.608 10.024C79.5013 10.312 79.448 10.8987 79.448 11.784C79.448 12.2107 79.4533 12.68 79.464 13.192C79.4853 13.6933 79.5067 14.216 79.528 14.76C79.56 15.2933 79.5867 15.832 79.608 16.376C79.6293 16.9093 79.6453 17.4267 79.656 17.928C79.6667 18.4187 79.6667 18.8773 79.656 19.304C79.656 19.72 79.6347 20.0827 79.592 20.392C79.432 20.904 79.176 21.2613 78.824 21.464C78.4827 21.6667 78.0507 21.768 77.528 21.768ZM107.493 21.864C106.213 21.864 104.986 21.7253 103.813 21.448C102.64 21.1707 101.589 20.728 100.661 20.12C99.733 19.512 98.997 18.7173 98.453 17.736C97.9197 16.7547 97.653 15.56 97.653 14.152C97.653 12.6053 97.9143 11.2507 98.437 10.088C98.9597 8.91467 99.6797 7.93333 100.597 7.144C101.514 6.35467 102.576 5.76267 103.781 5.368C104.997 4.97333 106.293 4.776 107.669 4.776C108.949 4.776 110.181 4.936 111.365 5.256C112.56 5.576 113.621 6.07733 114.549 6.76C115.488 7.432 116.229 8.30133 116.773 9.368C117.317 10.4347 117.589 11.7093 117.589 13.192C117.589 14.3333 117.349 15.4267 116.869 16.472C116.389 17.5067 115.701 18.4293 114.805 19.24C113.909 20.0507 112.842 20.6907 111.605 21.16C110.378 21.6293 109.008 21.864 107.493 21.864ZM107.285 17.528C108.224 17.528 109.024 17.384 109.685 17.096C110.357 16.7973 110.901 16.408 111.317 15.928C111.733 15.448 112.037 14.9253 112.229 14.36C112.421 13.784 112.517 13.2133 112.517 12.648C112.517 11.88 112.368 11.224 112.069 10.68C111.77 10.136 111.37 9.69867 110.869 9.368C110.368 9.02667 109.808 8.78133 109.189 8.632C108.57 8.472 107.941 8.392 107.301 8.392C106.458 8.392 105.664 8.57333 104.917 8.936C104.17 9.288 103.562 9.82667 103.093 10.552C102.634 11.2667 102.405 12.168 102.405 13.256C102.405 14.1413 102.592 14.904 102.965 15.544C103.349 16.184 103.904 16.6747 104.629 17.016C105.354 17.3573 106.24 17.528 107.285 17.528ZM129.832 22.136C129.224 22.136 128.557 21.8907 127.832 21.4C127.117 20.92 126.387 20.28 125.64 19.48C125.299 19.128 124.92 18.6747 124.504 18.12C124.088 17.5547 123.661 16.9467 123.224 16.296C122.797 15.6347 122.381 14.9627 121.976 14.28C121.571 13.5973 121.203 12.9467 120.872 12.328C120.541 11.6987 120.264 11.144 120.04 10.664C119.837 10.2373 119.677 9.84267 119.56 9.48C119.453 9.11733 119.4 8.78667 119.4 8.488C119.4 8.072 119.507 7.71467 119.72 7.416C119.944 7.11733 120.237 6.88267 120.6 6.712C120.963 6.54133 121.357 6.456 121.784 6.456C122.381 6.456 122.899 6.6 123.336 6.888C123.773 7.16533 124.173 7.58133 124.536 8.136C124.675 8.34933 124.856 8.67467 125.08 9.112C125.304 9.54933 125.555 10.056 125.832 10.632C126.109 11.1973 126.397 11.7893 126.696 12.408C127.005 13.0267 127.304 13.6293 127.592 14.216C127.88 14.8027 128.147 15.336 128.392 15.816C128.637 16.2853 128.872 16.6693 129.096 16.968C129.32 17.256 129.517 17.4 129.688 17.4C129.859 17.4 130.056 17.256 130.28 16.968C130.515 16.68 130.749 16.296 130.984 15.816C131.56 14.6853 132.136 13.4533 132.712 12.12C133.299 10.776 133.912 9.42133 134.552 8.056C134.915 7.48 135.288 7.05867 135.672 6.792C136.067 6.52533 136.563 6.392 137.16 6.392C137.811 6.392 138.339 6.55733 138.744 6.888C139.149 7.208 139.352 7.69333 139.352 8.344C139.352 8.67467 139.299 9.032 139.192 9.416C139.096 9.78933 138.957 10.184 138.776 10.6C138.605 11.0693 138.376 11.6187 138.088 12.248C137.8 12.8667 137.48 13.5227 137.128 14.216C136.787 14.9093 136.424 15.592 136.04 16.264C135.656 16.936 135.277 17.5653 134.904 18.152C134.531 18.728 134.173 19.2133 133.832 19.608C133.16 20.3547 132.477 20.9627 131.784 21.432C131.091 21.9013 130.44 22.136 129.832 22.136ZM144.827 21.496C144.187 21.496 143.686 21.3733 143.323 21.128C142.96 20.8827 142.704 20.5147 142.555 20.024C142.416 19.5227 142.347 18.8987 142.347 18.152C142.347 17.8 142.358 17.3893 142.379 16.92C142.4 16.44 142.422 15.9333 142.443 15.4C142.475 14.8667 142.512 14.328 142.555 13.784C142.598 13.2293 142.646 12.696 142.699 12.184C142.752 11.672 142.806 11.208 142.859 10.792C142.923 10.376 142.987 10.04 143.051 9.784C143.318 9.016 143.712 8.44533 144.235 8.072C144.758 7.688 145.424 7.496 146.235 7.496C147.003 7.496 147.563 7.77867 147.915 8.344C148.267 8.89867 148.443 9.67733 148.443 10.68C148.443 11.0213 148.432 11.4533 148.411 11.976C148.39 12.488 148.358 13.048 148.315 13.656C148.272 14.2533 148.219 14.8667 148.155 15.496C148.102 16.1147 148.038 16.712 147.963 17.288C147.888 17.8533 147.808 18.36 147.723 18.808C147.638 19.2453 147.547 19.5867 147.451 19.832C147.184 20.4293 146.832 20.856 146.395 21.112C145.968 21.368 145.446 21.496 144.827 21.496ZM146.011 5.272C144.902 5.272 144.128 5.09067 143.691 4.728C143.254 4.35467 143.035 3.928 143.035 3.448C143.035 2.84 143.254 2.328 143.691 1.912C144.128 1.496 144.672 1.18133 145.323 0.967999C145.974 0.743999 146.619 0.632 147.259 0.632C147.739 0.632 148.176 0.712 148.571 0.872C148.976 1.02133 149.296 1.26133 149.531 1.592C149.776 1.912 149.899 2.33333 149.899 2.856C149.899 3.432 149.718 3.90133 149.355 4.264C149.003 4.616 148.528 4.872 147.931 5.032C147.344 5.192 146.704 5.272 146.011 5.272ZM154.51 21.672C153.966 21.672 153.545 21.544 153.246 21.288C152.958 21.032 152.756 20.6693 152.638 20.2C152.532 19.72 152.478 19.1653 152.478 18.536C152.478 18.0667 152.51 17.48 152.574 16.776C152.649 16.0613 152.74 15.2613 152.846 14.376C152.964 13.48 153.076 12.5307 153.182 11.528C153.289 10.536 153.406 9.608 153.534 8.744C153.662 7.88 153.79 7.08533 153.918 6.36C154.057 5.63467 154.196 4.98933 154.334 4.424C154.473 3.848 154.612 3.35733 154.75 2.952C155.028 2.20533 155.353 1.65067 155.726 1.288C156.11 0.914665 156.553 0.727999 157.054 0.727999C157.716 0.727999 158.164 0.967999 158.398 1.448C158.633 1.91733 158.75 2.6 158.75 3.496C158.75 3.82667 158.734 4.19467 158.702 4.6C158.681 4.99467 158.649 5.416 158.606 5.864C158.564 6.30133 158.521 6.74933 158.478 7.208C158.436 7.656 158.393 8.09867 158.35 8.536C158.308 8.96267 158.27 9.368 158.238 9.752C158.217 10.1253 158.206 10.4613 158.206 10.76C158.206 11.1013 158.228 11.3893 158.27 11.624C158.313 11.848 158.388 11.96 158.494 11.96C158.612 11.96 158.734 11.912 158.862 11.816C159.001 11.72 159.156 11.5867 159.326 11.416C159.476 11.256 159.689 11.0427 159.966 10.776C160.244 10.5093 160.548 10.216 160.878 9.896C161.22 9.56533 161.55 9.24533 161.87 8.936C162.201 8.62667 162.5 8.35467 162.766 8.12C163.033 7.87467 163.23 7.70933 163.358 7.624C163.646 7.42133 163.961 7.26133 164.302 7.144C164.644 7.02667 164.964 6.968 165.262 6.968C165.774 6.968 166.185 7.10133 166.494 7.368C166.814 7.63467 166.974 7.98667 166.974 8.424C166.974 8.744 166.862 9.096 166.638 9.48C166.425 9.85333 166.094 10.2107 165.646 10.552C165.081 11.096 164.526 11.5813 163.982 12.008C163.438 12.424 162.932 12.8613 162.462 13.32C162.185 13.576 162.046 13.7787 162.046 13.928C162.046 14.024 162.089 14.1093 162.174 14.184C162.26 14.2587 162.377 14.3493 162.526 14.456C162.804 14.648 163.172 14.8933 163.63 15.192C164.1 15.4907 164.596 15.816 165.118 16.168C165.652 16.52 166.164 16.8667 166.654 17.208C167.145 17.5387 167.556 17.8373 167.886 18.104C168.121 18.3067 168.313 18.5147 168.462 18.728C168.612 18.9307 168.686 19.1493 168.686 19.384C168.686 19.6933 168.596 19.9867 168.414 20.264C168.244 20.5307 168.004 20.7493 167.694 20.92C167.396 21.08 167.054 21.16 166.67 21.16C166.297 21.16 165.934 21.0747 165.582 20.904C165.241 20.7333 164.91 20.52 164.59 20.264C164.174 19.9653 163.684 19.5973 163.118 19.16C162.564 18.7227 161.993 18.264 161.406 17.784C160.83 17.2933 160.286 16.8293 159.774 16.392C159.518 16.1573 159.273 15.9653 159.038 15.816C158.804 15.6667 158.58 15.592 158.366 15.592C158.142 15.592 157.961 15.6667 157.822 15.816C157.694 15.9547 157.598 16.1467 157.534 16.392C157.321 17.3413 157.129 18.1307 156.958 18.76C156.788 19.3787 156.628 19.88 156.478 20.264C156.254 20.776 155.988 21.1387 155.678 21.352C155.369 21.5653 154.98 21.672 154.51 21.672ZM180.212 21.864C178.932 21.864 177.705 21.7253 176.532 21.448C175.358 21.1707 174.308 20.728 173.38 20.12C172.452 19.512 171.716 18.7173 171.172 17.736C170.638 16.7547 170.372 15.56 170.372 14.152C170.372 12.6053 170.633 11.2507 171.156 10.088C171.678 8.91467 172.398 7.93333 173.316 7.144C174.233 6.35467 175.294 5.76267 176.5 5.368C177.716 4.97333 179.012 4.776 180.388 4.776C181.668 4.776 182.9 4.936 184.084 5.256C185.278 5.576 186.34 6.07733 187.268 6.76C188.206 7.432 188.948 8.30133 189.492 9.368C190.036 10.4347 190.308 11.7093 190.308 13.192C190.308 14.3333 190.068 15.4267 189.588 16.472C189.108 17.5067 188.42 18.4293 187.524 19.24C186.628 20.0507 185.561 20.6907 184.324 21.16C183.097 21.6293 181.726 21.864 180.212 21.864ZM180.004 17.528C180.942 17.528 181.742 17.384 182.404 17.096C183.076 16.7973 183.62 16.408 184.036 15.928C184.452 15.448 184.756 14.9253 184.948 14.36C185.14 13.784 185.236 13.2133 185.236 12.648C185.236 11.88 185.086 11.224 184.788 10.68C184.489 10.136 184.089 9.69867 183.588 9.368C183.086 9.02667 182.526 8.78133 181.908 8.632C181.289 8.472 180.66 8.392 180.02 8.392C179.177 8.392 178.382 8.57333 177.636 8.936C176.889 9.288 176.281 9.82667 175.812 10.552C175.353 11.2667 175.124 12.168 175.124 13.256C175.124 14.1413 175.31 14.904 175.684 15.544C176.068 16.184 176.622 16.6747 177.348 17.016C178.073 17.3573 178.958 17.528 180.004 17.528ZM202.551 22.136C201.943 22.136 201.276 21.8907 200.551 21.4C199.836 20.92 199.105 20.28 198.359 19.48C198.017 19.128 197.639 18.6747 197.223 18.12C196.807 17.5547 196.38 16.9467 195.943 16.296C195.516 15.6347 195.1 14.9627 194.695 14.28C194.289 13.5973 193.921 12.9467 193.591 12.328C193.26 11.6987 192.983 11.144 192.759 10.664C192.556 10.2373 192.396 9.84267 192.279 9.48C192.172 9.11733 192.119 8.78667 192.119 8.488C192.119 8.072 192.225 7.71467 192.439 7.416C192.663 7.11733 192.956 6.88267 193.319 6.712C193.681 6.54133 194.076 6.456 194.503 6.456C195.1 6.456 195.617 6.6 196.055 6.888C196.492 7.16533 196.892 7.58133 197.255 8.136C197.393 8.34933 197.575 8.67467 197.799 9.112C198.023 9.54933 198.273 10.056 198.551 10.632C198.828 11.1973 199.116 11.7893 199.415 12.408C199.724 13.0267 200.023 13.6293 200.311 14.216C200.599 14.8027 200.865 15.336 201.111 15.816C201.356 16.2853 201.591 16.6693 201.815 16.968C202.039 17.256 202.236 17.4 202.407 17.4C202.577 17.4 202.775 17.256 202.999 16.968C203.233 16.68 203.468 16.296 203.703 15.816C204.279 14.6853 204.855 13.4533 205.431 12.12C206.017 10.776 206.631 9.42133 207.271 8.056C207.633 7.48 208.007 7.05867 208.391 6.792C208.785 6.52533 209.281 6.392 209.879 6.392C210.529 6.392 211.057 6.55733 211.463 6.888C211.868 7.208 212.071 7.69333 212.071 8.344C212.071 8.67467 212.017 9.032 211.911 9.416C211.815 9.78933 211.676 10.184 211.495 10.6C211.324 11.0693 211.095 11.6187 210.807 12.248C210.519 12.8667 210.199 13.5227 209.847 14.216C209.505 14.9093 209.143 15.592 208.759 16.264C208.375 16.936 207.996 17.5653 207.623 18.152C207.249 18.728 206.892 19.2133 206.551 19.608C205.879 20.3547 205.196 20.9627 204.503 21.432C203.809 21.9013 203.159 22.136 202.551 22.136Z" fill="black"/>
</svg>
